<?xml version="1.0" encoding="UTF-8" standalone="no"?>
<!-- Created with Inkscape (http://www.inkscape.org/) -->

<svg
   version="1.1"
   id="svg1"
   width="64"
   height="64"
   viewBox="0 0 64 64"
   xmlns="http://www.w3.org/2000/svg"
   xmlns:svg="http://www.w3.org/2000/svg">
  <defs
     id="defs1" />
  <g
     id="g1">
    <path
       style="fill:#000000;stroke-width:0.0625038"
       d="M 29.868946,63.938596 C 16.782554,63.290663 4.8367895,53.655859 1.3104231,41.052686 -2.3134054,29.161431 1.7477198,15.357531 11.402869,7.4796068 21.484865,-1.2624274 37.149763,-2.4742566 48.479698,4.5463694 59.060532,10.739098 65.294039,23.409369 63.772884,35.577849 62.484702,48.997903 51.756129,60.803395 38.520798,63.34236 c -2.840218,0.590758 -5.758151,0.765437 -8.651852,0.596236 z m 9.740973,-17.379187 c 1.266781,-3.995612 3.730657,1.916183 4.735218,1.118455 0.01341,-3.890201 -1.140367,-7.652943 -3.17349,-10.950604 -2.202659,-3.040025 0.434721,-6.103019 2.573855,-8.234022 1.622716,-0.492243 3.681059,-0.03746 5.448275,-0.260456 1.587442,-0.366873 3.227871,0.243573 3.462722,2.093564 0.614703,1.900374 1.756772,-3.443978 1.045558,-4.583404 -0.82209,-3.928033 -5.10884,-5.234956 -8.595215,-5.597906 -1.583514,-3.527141 -5.979017,-3.717438 -9.293808,-4.23943 -4.742363,-0.479496 -9.944875,0.191739 -13.540774,3.612175 -4.895334,4.697516 -6.964262,11.402965 -9.983375,17.30627 -0.497214,1.289773 -2.3749548,3.961777 0.289683,2.439547 2.430774,-0.586118 5.728858,-3.264407 6.236462,0.710009 0.578283,2.144218 1.757492,3.22386 3.710616,1.682944 1.917533,-1.102367 3.97701,-2.094224 4.678973,0.726941 1.02938,2.4757 2.407591,4.033075 4.631395,1.650533 3.051514,-3.265892 4.317682,2.411439 6.404119,4.15106 0.471075,-0.529537 0.917238,-1.080415 1.369786,-1.625676 z M 37.886861,22.005186 c -1.725287,-2.368998 -0.06269,-1.935853 1.797522,-1.243214 3.628028,0.05418 -0.637182,2.090605 -1.493973,1.850401 z"
       id="path1" />
  </g>
</svg>
